<?xml version="1.0"?>
<svg id="Capa_1" data-name="Capa 1" xmlns="http://www.w3.org/2000/svg" viewBox="0 0 1080 1080">
  <defs>
    
  </defs>
  <rect class="cls-1" x="-11.87" y="-9.22" width="1102.67" height="1100"></rect>
  <g>
    <path d="M49.58,521.53l.57-287.49,130.49.31c23.25,52.33,46.5,105.07,63.47,145.53h2.59c-1.8-24.09-2.08-69.42-1.99-117.2l.06-28.18,91.07.24-.57,287.49-114.79-.3c-18.08-40.47-53.87-129.99-70.47-169.24h-2.22c2.91,28.59,3.22,61.67,3.08,127.83l-.08,41.25-101.2-.24Z"></path>
    <path d="M576.52,522.74l-36.61-67.87h-.81s-36.5,67.71-36.5,67.71l-130.44-.29,95.23-145.57-93.62-141.91,142.93.31,31.3,62.96h.82s32.81-62.81,32.81-62.81l138.03.29-103.61,137.4,104.62,150.11-144.15-.32Z"></path>
    <path d="M282.83,557.33l271.33.59-.19,77.59-134.93-.32-.09,37.98,134.99.3-.19,77.59-134.99-.3-.23,94.34-136.4-.27.7-287.49Z"></path>
    <path d="M707.35,845.69l.22-96.38c.01-5.72-1.23-8.17-4.95-13.9l-111.65-177.47,147.73.32c16.11,36.38,25.59,64.99,39.62,100.13,12.11-33.05,22.12-58.34,39.65-99.96l135.28.29-114.51,179.02c-1.67,2.85-3.34,6.93-3.35,13.88l-.21,94.34-127.81-.28Z"></path>
  </g>
</svg>