<?xml version="1.0"?>
<svg id="Capa_1" data-name="Capa 1" xmlns="http://www.w3.org/2000/svg" viewBox="0 0 1080 1080">
  <defs></defs>
  <path class="cls-1" d="M78.41,521.13l.58-293.71,133.31.32c23.75,53.46,47.51,107.34,64.85,148.68h2.65c-1.84-24.61-2.13-70.92-2.03-119.74l.06-28.78,93.04.25-.58,293.71-117.28-.31c-18.48-41.35-55.03-132.8-71.99-172.9h-2.27c2.97,29.21,3.28,63,3.15,130.59l-.08,42.14-103.39-.25Z"></path>
  <path class="cls-1" d="M616.74,522.37l-37.4-69.34h-.83s-37.29,69.17-37.29,69.17l-133.26-.3,97.29-148.72-95.64-144.98,146.02.32,31.98,64.32h.84s33.52-64.17,33.52-64.17l141.01.3-105.85,140.37,106.88,153.35-147.27-.33Z"></path>
  <path class="cls-1" d="M316.7,557.7l277.19.6-.19,79.26-137.85-.33-.09,38.8,137.91.31-.2,79.27-137.91-.31-.23,96.37-139.34-.28.72-293.7Z"></path>
  <path class="cls-1" d="M750.39,852.3l.22-98.46c.01-5.84-1.26-8.35-5.06-14.2l-114.06-181.31,150.92.33c16.45,37.17,26.14,66.39,40.47,102.3,12.37-33.77,22.6-59.61,40.5-102.12l138.2.3-116.99,182.89c-1.7,2.92-3.41,7.08-3.42,14.18l-.21,96.37-130.57-.28Z"></path>
</svg>